PathFileType	4	(X/Y/Z)	s06c0301.trc
DataRate	CameraRate	NumFrames	NumMarkers	Units	OrigDataRate	OrigDataStartFrame	OrigNumFrames
200	200	4	48	mm	200	1750	2000
Frame#	Time	racr			lacr			c7			jug			rlel			rdr			llel			ldr			s2			lic			ric			lasi			rasi			rpsi			lpsi			rgt			lgt			rth1			rth2			rth3			rth4			rlfc			rmfc			rsh1			rsh2			rsh3			rsh4			rlmal			rcal			rtoe			rmt5			lth1			lth2			lth4			lth3			llfc			lmfc			llmal			lcal			lmt5			lsh1			lsh2			lsh3			lsh4			ltoe			SBIKE			LBIKE			RBIKE			
		X1	Y1	Z1	X2	Y2	Z2	X3	Y3	Z3	X4	Y4	Z4	X5	Y5	Z5	X6	Y6	Z6	X7	Y7	Z7	X8	Y8	Z8	X9	Y9	Z9	X10	Y10	Z10	X11	Y11	Z11	X12	Y12	Z12	X13	Y13	Z13	X14	Y14	Z14	X15	Y15	Z15	X16	Y16	Z16	X17	Y17	Z17	X18	Y18	Z18	X19	Y19	Z19	X20	Y20	Z20	X21	Y21	Z21	X22	Y22	Z22	X23	Y23	Z23	X24	Y24	Z24	X25	Y25	Z25	X26	Y26	Z26	X27	Y27	Z27	X28	Y28	Z28	X29	Y29	Z29	X30	Y30	Z30	X31	Y31	Z31	X32	Y32	Z32	X33	Y33	Z33	X34	Y34	Z34	X35	Y35	Z35	X36	Y36	Z36	X37	Y37	Z37	X38	Y38	Z38	X39	Y39	Z39	X40	Y40	Z40	X41	Y41	Z41	X42	Y42	Z42	X43	Y43	Z43	X44	Y44	Z44	X45	Y45	Z45	X46	Y46	Z46	X47	Y47	Z47	X48	Y48	Z48	
1750	8.7500	459.135298	1340.577555	-74.143249	487.546162	1363.803531	-367.971637	451.861550	1426.220804	-222.611631	459.541471	1250.558832	-212.512791	546.484332	1106.878825	5.364465	720.001541	921.005395	-54.801563	565.008506	1118.672810	-443.616331	721.511817	917.037537	-389.935557	-47.747546	1123.514407	-205.964239	118.715578	1114.132658	-392.516994	118.276436	1100.205921	-55.956351	130.237471	1073.888574	-350.802891	151.792854	1052.635088	-86.839205	-12.941031	1162.987033	-182.930421	-21.233144	1160.041642	-246.376418	78.546023	1007.655152	-27.353971	90.982159	1073.406535	-414.539374	161.391083	899.774069	-6.425664	228.755594	839.433432	-11.234546	256.034990	756.968787	-19.513541	256.590788	860.213660	-27.380369	281.602585	658.428224	-39.441958	274.398409	636.171540	-150.348065	219.437333	555.561742	-15.466381	192.855467	474.544473	-35.693620	131.002722	412.890467	-40.533833	214.290656	466.285879	-69.417333	81.848127	352.492715	-47.350050	26.819442	377.893123	-100.797185	180.536836	148.234614	-96.379657	104.317394	213.217928	-28.906754	167.753904	1000.402988	-426.556132	254.415330	991.846096	-419.601452	266.382224	1023.505669	-402.426095	327.337089	939.471640	-418.438679	409.701664	856.407369	-388.362591	415.039453	838.618245	-270.672041	252.696287	514.942768	-383.763709	175.878693	488.581510	-337.287408	366.552223	435.912494	-407.823009	373.355714	753.280276	-410.975445	355.271948	669.983736	-391.677214	298.397991	601.447260	-391.351156	377.950969	663.428168	-360.074565	451.879568	436.101536	-348.115701	-203.585272	867.124493	-215.092403	-49.655718	79.890950	-414.563888	-48.841603	79.916753	-17.104033	
1751	8.7550	458.843384	1340.468498	-73.896188	487.629305	1363.771924	-367.742891	451.748794	1426.192586	-222.505709	459.385103	1250.528689	-212.308159	546.296541	1106.688643	5.580675	719.965588	921.032738	-54.807646	565.551754	1118.888431	-443.408085	721.746262	917.028366	-390.398767	-47.784985	1123.398426	-206.385395	119.150491	1113.812101	-392.637012	118.010934	1100.260456	-56.415030	130.764282	1072.734894	-351.090116	150.526485	1052.469086	-88.840523	-13.036801	1162.876552	-183.446757	-21.266604	1159.844742	-246.856160	78.847694	1008.038511	-27.630033	90.977137	1072.123534	-415.155095	162.420618	900.970928	-6.837415	230.315813	841.088406	-11.551695	258.259858	758.957429	-19.526089	257.870891	862.071685	-27.866716	283.969623	660.493482	-39.494791	276.605700	638.187549	-150.430203	220.451896	558.220664	-15.497654	192.222926	477.349487	-36.824821	129.894327	416.889603	-40.600805	213.729830	469.041742	-69.761716	79.552601	357.409097	-47.388994	24.635868	383.302299	-100.815523	176.829668	152.483024	-96.448850	101.008949	217.865725	-29.056639	167.574172	998.119695	-427.098646	254.278491	988.890184	-420.378869	266.535835	1020.514388	-403.344344	326.595734	935.860652	-418.992913	408.612253	852.186042	-388.969544	414.025926	834.877077	-270.631877	255.168993	509.205525	-383.973505	178.586928	482.387678	-337.240918	369.730250	430.893656	-407.808852	373.338937	748.731266	-411.652882	356.032369	665.261483	-392.021398	300.048210	595.980890	-391.638982	378.841819	659.136357	-360.662363	455.016398	431.869346	-348.143880	-203.579439	867.128700	-215.086866	-49.650562	79.899093	-414.547953	-48.843452	79.948243	-17.108166	
1752	8.7600	458.600294	1340.323051	-73.650387	487.727873	1363.752568	-367.497864	451.642745	1426.164512	-222.373534	459.285749	1250.497952	-212.125865	546.132329	1106.532392	5.820396	719.945186	921.075069	-54.828362	566.118285	1119.117253	-443.234082	721.968577	916.913802	-390.356869	-47.792885	1123.288240	-206.824796	119.530844	1113.399872	-392.708745	117.762013	1100.401283	-56.766926	131.336896	1071.509671	-351.378209	150.289217	1052.691410	-89.424785	-13.066575	1162.828913	-183.917584	-21.266374	1159.663584	-247.360385	79.043076	1008.404115	-27.917537	91.066742	1070.785646	-415.826404	163.482347	902.057022	-7.283722	231.879628	842.897790	-11.857865	260.491136	760.948081	-19.467035	259.276803	864.044312	-28.259380	286.339554	662.435609	-39.483919	278.857237	640.215852	-150.515847	221.489967	560.992949	-15.568918	192.062755	480.497856	-36.900477	128.854498	421.005794	-40.707612	213.346390	471.943908	-70.025015	77.375862	362.397619	-47.476268	22.681848	388.457258	-100.885349	173.438083	156.887068	-96.325359	97.872592	222.741829	-29.225556	167.476766	995.819852	-427.684036	254.105518	985.782762	-421.122362	266.716051	1017.386427	-404.300808	325.888568	932.011865	-419.601614	407.408301	847.837446	-389.625489	412.044602	830.177837	-272.372799	257.673889	503.159688	-383.523750	181.235050	476.227228	-337.557618	372.648772	425.955314	-407.930517	373.090660	744.021658	-412.229783	356.712005	660.394454	-392.443479	301.549043	590.415221	-391.866428	379.488909	654.496943	-361.035094	457.941540	427.359070	-348.202981	-203.580350	867.131749	-215.117110	-49.648784	79.890969	-414.559804	-48.852820	79.927976	-17.129483	
1753	8.7650	458.363850	1340.119301	-73.375989	487.859397	1363.730992	-367.219028	451.567970	1426.161902	-222.246222	459.173222	1250.487598	-212.003767	545.974539	1106.351268	6.075089	719.951902	921.076013	-54.825563	566.606527	1119.288263	-443.043217	722.228459	916.760452	-390.275820	-47.716424	1123.137358	-207.280824	119.899226	1112.983575	-392.808320	117.597819	1100.496511	-57.137392	131.955542	1070.212420	-351.667013	150.026908	1053.002950	-90.046762	-13.091303	1162.795074	-184.447763	-21.246420	1159.501154	-247.859538	79.377663	1008.825379	-28.163449	91.120206	1069.442511	-416.449529	164.537779	903.267713	-7.811587	233.424564	844.725008	-12.204791	262.788207	762.917211	-19.441692	260.585660	865.970720	-28.737424	288.795125	664.560312	-39.495077	281.168483	642.243519	-150.508163	222.599828	563.812428	-15.638780	191.972009	483.861745	-37.029702	127.923141	425.250609	-40.839251	212.973515	474.939170	-70.229689	75.256809	367.562430	-47.561595	20.728575	393.765866	-100.985916	170.104510	161.504791	-96.307212	94.925108	227.808875	-29.273642	167.406832	993.420466	-428.310858	253.956789	982.522995	-421.884040	266.937561	1014.111345	-405.283766	325.225733	928.083558	-420.185555	406.178320	843.292687	-390.245049	410.952191	825.802333	-273.441645	259.921958	497.286429	-383.655514	183.729701	469.944693	-337.599856	375.451363	420.802221	-407.947198	372.769442	739.167384	-412.849979	357.312104	655.413649	-392.878248	302.887374	584.877957	-392.169433	380.115680	649.792410	-361.437266	460.758365	422.749139	-348.209638	-203.562944	867.133120	-215.120298	-49.648708	79.894554	-414.565151	-48.839290	79.910099	-17.137155	
